<svg width="64" height="64" viewBox="0 0 64 64" fill="none" xmlns="http://www.w3.org/2000/svg">
  <!-- Background circle with gradient -->
  <defs>
    <linearGradient id="bgGradient" x1="0%" y1="0%" x2="100%" y2="100%">
      <stop offset="0%" style="stop-color:#8B5CF6;stop-opacity:1" />
      <stop offset="100%" style="stop-color:#3B82F6;stop-opacity:1" />
    </linearGradient>
    <linearGradient id="brainGradient" x1="0%" y1="0%" x2="100%" y2="100%">
      <stop offset="0%" style="stop-color:#FFFFFF;stop-opacity:1" />
      <stop offset="100%" style="stop-color:#E0E7FF;stop-opacity:1" />
    </linearGradient>
  </defs>
  
  <!-- Main background -->
  <circle cx="32" cy="32" r="30" fill="url(#bgGradient)" stroke="#6366F1" stroke-width="2"/>
  
  <!-- Brain icon - optimized for 64x64 -->
  <g transform="translate(16, 16)">
    <!-- Brain outline -->
    <path d="M16 4C10.477 4 6 8.477 6 14C6 19.523 10.477 24 16 24C21.523 24 26 19.523 26 14C26 8.477 21.523 4 16 4ZM16 22C11.582 22 8 18.418 8 14C8 9.582 11.582 6 16 6C20.418 6 24 9.582 24 14C24 18.418 20.418 22 16 22Z" fill="url(#brainGradient)"/>
    
    <!-- Brain details -->
    <path d="M16 8C13.791 8 12 9.791 12 12C12 14.209 13.791 16 16 16C18.209 16 20 14.209 20 12C20 9.791 18.209 8 16 8ZM16 14C14.895 14 14 13.105 14 12C14 10.895 14.895 10 16 10C17.105 10 18 10.895 18 12C18 13.105 17.105 14 16 14Z" fill="#8B5CF6"/>
    
    <!-- Neural connections -->
    <circle cx="12" cy="10" r="1" fill="#FFFFFF"/>
    <circle cx="20" cy="10" r="1" fill="#FFFFFF"/>
    <circle cx="12" cy="18" r="1" fill="#FFFFFF"/>
    <circle cx="20" cy="18" r="1" fill="#FFFFFF"/>
    <circle cx="16" cy="12" r="1" fill="#FFFFFF"/>
    <circle cx="16" cy="16" r="1" fill="#FFFFFF"/>
  </g>
  
  <!-- AI text indicator -->
  <text x="32" y="50" text-anchor="middle" font-family="Arial, sans-serif" font-size="6" font-weight="bold" fill="white">AI</text>
</svg>
